<svg width="595" height="50" viewBox="0 0 595 50" fill="none" xmlns="http://www.w3.org/2000/svg">
<path d="M15.7433 38.576C12.6073 38.576 9.85525 37.92 7.48725 36.608C5.11925 35.296 3.27925 33.36 1.96725 30.8C0.68725 28.24 0.0472502 25.072 0.0472502 21.296C0.0472502 17.584 0.68725 14.416 1.96725 11.792C3.27925 9.136 5.15125 7.12 7.58325 5.744C10.0153 4.336 12.9433 3.632 16.3673 3.632C18.2233 3.632 20.1433 3.84 22.1273 4.256C24.1433 4.672 26.1753 5.312 28.2233 6.176L27.7433 14.768H23.6633L22.5113 9.2L23.5673 10.16C22.4473 9.776 21.3113 9.472 20.1593 9.248C19.0073 8.992 17.9193 8.864 16.8953 8.864C14.9113 8.864 13.2153 9.328 11.8073 10.256C10.3993 11.184 9.31125 12.56 8.54325 14.384C7.80725 16.208 7.43925 18.48 7.43925 21.2C7.43925 24.976 8.20725 27.936 9.74325 30.08C11.3113 32.224 13.5833 33.296 16.5593 33.296C17.4553 33.296 18.3993 33.2 19.3913 33.008C20.3833 32.784 21.4073 32.48 22.4633 32.096L21.6473 33.536V24.416L22.7513 25.616L18.1433 24.704V21.152L31.4873 20.912V24.512L27.3593 25.616L28.0312 24.416V35.888C25.8233 36.784 23.6793 37.456 21.5993 37.904C19.5193 38.352 17.5673 38.576 15.7433 38.576ZM45.7781 38.576C43.4421 38.576 41.3941 38.096 39.6341 37.136C37.8741 36.144 36.4981 34.688 35.5061 32.768C34.5461 30.816 34.0661 28.448 34.0661 25.664C34.0661 22.784 34.5781 20.32 35.6021 18.272C36.6581 16.192 38.1301 14.592 40.0181 13.472C41.9061 12.352 44.1301 11.792 46.6901 11.792C49.1861 11.792 51.2181 12.288 52.7861 13.28C54.3541 14.272 55.5061 15.632 56.2421 17.36C56.9781 19.056 57.3461 20.976 57.3461 23.12C57.3461 23.664 57.3141 24.208 57.2501 24.752C57.2181 25.296 57.1541 25.872 57.0581 26.48H39.4901V22.496H51.2981L50.4341 23.12C50.4661 21.84 50.3381 20.72 50.0501 19.76C49.7941 18.768 49.3461 18 48.7061 17.456C48.0981 16.912 47.2501 16.64 46.1621 16.64C44.9141 16.64 43.9061 17.008 43.1381 17.744C42.3701 18.448 41.8101 19.408 41.4581 20.624C41.1381 21.84 40.9781 23.2 40.9781 24.704C40.9781 26.4 41.1861 27.92 41.6021 29.264C42.0181 30.608 42.6901 31.664 43.6181 32.432C44.5781 33.2 45.8261 33.584 47.3621 33.584C48.4501 33.584 49.6181 33.392 50.8661 33.008C52.1461 32.592 53.4741 31.984 54.8501 31.184L57.1061 34.784C55.2501 36.064 53.3461 37.024 51.3941 37.664C49.4741 38.272 47.6021 38.576 45.7781 38.576ZM60.3139 38V34.544L64.3459 33.392L63.5299 34.352V16.064L64.3459 17.168L60.3139 15.968V12.512L68.7619 12.128L69.6259 16.736L68.7619 16.4C70.2979 14.832 71.9299 13.68 73.6579 12.944C75.3859 12.176 77.0339 11.792 78.6019 11.792C80.7779 11.792 82.5859 12.48 84.0259 13.856C85.4659 15.2 86.1699 17.248 86.1379 20V34.352L85.5139 33.392L89.3539 34.544V38H76.5379V34.544L80.1859 33.488L79.4179 34.496V21.44C79.4179 19.872 79.0659 18.72 78.3619 17.984C77.6899 17.248 76.7939 16.88 75.6739 16.88C74.8099 16.88 73.8659 17.12 72.8419 17.6C71.8179 18.08 70.8099 18.8 69.8179 19.76L70.2499 18.752V34.496L69.6259 33.488L73.1299 34.544V38H60.3139ZM98.5965 18.848C98.5965 19.584 98.9165 20.176 99.5565 20.624C100.197 21.072 101.013 21.456 102.005 21.776C103.029 22.096 104.101 22.432 105.221 22.784C106.373 23.136 107.445 23.6 108.437 24.176C109.461 24.72 110.293 25.456 110.933 26.384C111.573 27.312 111.893 28.512 111.893 29.984C111.893 31.872 111.381 33.456 110.357 34.736C109.333 36.016 107.941 36.976 106.181 37.616C104.421 38.256 102.437 38.576 100.229 38.576C98.9485 38.576 97.5885 38.464 96.1485 38.24C94.7405 38.016 93.2845 37.712 91.7805 37.328L92.0685 30.08H96.2925L96.8205 34.304L96.2445 33.488C96.8845 33.68 97.5885 33.84 98.3565 33.968C99.1245 34.064 99.7965 34.112 100.373 34.112C101.205 34.112 101.973 34 102.677 33.776C103.413 33.552 104.005 33.232 104.453 32.816C104.933 32.368 105.173 31.808 105.173 31.136C105.173 30.368 104.853 29.76 104.213 29.312C103.573 28.864 102.741 28.48 101.717 28.16C100.725 27.84 99.6685 27.504 98.5485 27.152C97.4605 26.8 96.4045 26.336 95.3805 25.76C94.3885 25.184 93.5725 24.416 92.9325 23.456C92.2925 22.496 91.9725 21.248 91.9725 19.712C91.9725 17.856 92.4365 16.352 93.3645 15.2C94.2925 14.016 95.5245 13.152 97.0605 12.608C98.6285 12.064 100.341 11.792 102.197 11.792C103.509 11.792 104.901 11.92 106.373 12.176C107.845 12.4 109.349 12.736 110.885 13.184L110.645 19.616H106.373L105.605 15.824L106.517 16.832C105.013 16.416 103.685 16.208 102.533 16.208C101.349 16.208 100.389 16.448 99.6525 16.928C98.9485 17.376 98.5965 18.016 98.5965 18.848ZM114.252 38V34.544L118.236 33.392L117.42 34.352V4.592L118.236 5.648L114.252 4.496V1.04L124.14 0.655997V16.736L122.652 16.4C124.188 14.832 125.82 13.68 127.548 12.944C129.276 12.176 130.924 11.792 132.492 11.792C133.932 11.792 135.228 12.096 136.38 12.704C137.532 13.312 138.428 14.224 139.068 15.44C139.74 16.624 140.06 18.128 140.028 19.952V34.352L139.404 33.392L143.244 34.544V38H130.428V34.544L134.124 33.488L133.308 34.496V21.392C133.34 19.856 133.004 18.72 132.3 17.984C131.596 17.248 130.684 16.88 129.564 16.88C128.7 16.88 127.756 17.12 126.732 17.6C125.708 18.08 124.684 18.8 123.66 19.76L124.14 18.752V34.496L123.516 33.488L127.02 34.544V38H114.252ZM155.047 34.064L154.567 33.488L158.263 34.544V38H145.111V34.544L148.807 33.488L148.327 34.064V16.544L148.759 16.976L145.111 15.968V12.512L155.047 12.176V34.064ZM151.495 8.432C150.311 8.432 149.351 8.096 148.615 7.424C147.911 6.752 147.559 5.792 147.559 4.544C147.559 3.2 147.927 2.208 148.663 1.568C149.431 0.895998 150.391 0.559999 151.543 0.559999C152.663 0.559999 153.591 0.895998 154.327 1.568C155.063 2.208 155.431 3.184 155.431 4.496C155.431 5.808 155.047 6.8 154.279 7.472C153.543 8.112 152.615 8.432 151.495 8.432ZM160.392 38V34.544L164.424 33.392L163.608 34.352V16.064L164.424 17.168L160.392 15.968V12.512L168.84 12.128L169.704 16.736L168.84 16.4C170.376 14.832 172.008 13.68 173.736 12.944C175.464 12.176 177.112 11.792 178.68 11.792C180.856 11.792 182.664 12.48 184.104 13.856C185.544 15.2 186.248 17.248 186.216 20V34.352L185.592 33.392L189.432 34.544V38H176.616V34.544L180.264 33.488L179.496 34.496V21.44C179.496 19.872 179.144 18.72 178.44 17.984C177.768 17.248 176.872 16.88 175.752 16.88C174.888 16.88 173.944 17.12 172.92 17.6C171.896 18.08 170.888 18.8 169.896 19.76L170.328 18.752V34.496L169.704 33.488L173.208 34.544V38H160.392ZM214.164 7.664L209.94 9.104L210.66 8.048V34.304L209.94 33.296L214.164 34.544V38H200.244V34.544L204.42 33.344L203.796 34.304V8.048L204.66 9.104L200.244 7.904V4.448L214.164 4.208V7.664ZM242.018 16.256L241.058 16.496C242.594 14.928 244.226 13.76 245.954 12.992C247.682 12.192 249.33 11.792 250.898 11.792C252.914 11.792 254.594 12.464 255.938 13.808C257.314 15.12 258.002 17.152 258.002 19.904V34.352L257.378 33.392L261.218 34.544V38H248.594V34.544L252.098 33.488L251.282 34.496V21.392C251.282 19.856 250.962 18.72 250.322 17.984C249.714 17.248 248.914 16.88 247.922 16.88C247.09 16.88 246.162 17.136 245.138 17.648C244.114 18.16 243.09 18.912 242.066 19.904L242.546 18.416C242.61 18.672 242.642 18.912 242.642 19.136C242.642 19.328 242.642 19.504 242.642 19.664V34.352L242.018 33.392L245.378 34.544V38H233.186V34.544L236.69 33.488L235.922 34.496V21.392C235.922 19.856 235.602 18.72 234.962 17.984C234.322 17.248 233.522 16.88 232.562 16.88C231.73 16.88 230.802 17.12 229.778 17.6C228.754 18.08 227.762 18.8 226.802 19.76L227.234 18.752V34.496L226.61 33.488L229.97 34.544V38H217.298V34.544L221.33 33.392L220.514 34.352V16.064L221.33 17.168L217.298 15.968V12.512L225.746 12.128L226.61 16.736L225.746 16.4C227.25 14.896 228.85 13.76 230.546 12.992C232.274 12.192 233.922 11.792 235.49 11.792C236.962 11.792 238.274 12.16 239.426 12.896C240.578 13.6 241.442 14.72 242.018 16.256ZM262.663 49.04V45.584L266.743 44.24L265.879 45.392V16.256L266.647 17.168L262.663 15.968V12.512L271.111 12.128L271.879 16.304L271.111 15.92C272.615 14.576 274.071 13.552 275.479 12.848C276.919 12.144 278.407 11.792 279.943 11.792C281.799 11.792 283.431 12.288 284.839 13.28C286.247 14.24 287.351 15.68 288.151 17.6C288.983 19.488 289.399 21.808 289.399 24.56C289.399 27.664 288.871 30.256 287.815 32.336C286.759 34.416 285.271 35.984 283.351 37.04C281.463 38.064 279.255 38.576 276.727 38.576C275.959 38.576 275.159 38.512 274.327 38.384C273.495 38.288 272.631 38.144 271.735 37.952L272.599 37.184V45.392L271.879 44.384L276.343 45.584V49.04H262.663ZM275.863 33.824C278.135 33.824 279.783 33.056 280.807 31.52C281.863 29.984 282.391 27.888 282.391 25.232C282.391 23.472 282.183 21.968 281.767 20.72C281.351 19.44 280.775 18.464 280.039 17.792C279.303 17.088 278.391 16.736 277.303 16.736C276.471 16.736 275.591 16.96 274.663 17.408C273.735 17.856 272.775 18.544 271.783 19.472L272.599 17.696V34.448L271.783 33.152C273.287 33.6 274.647 33.824 275.863 33.824ZM314.042 34.592L313.13 33.248L317.258 34.544V37.952L308.858 38.384L307.946 33.776L308.426 33.92C307.146 35.488 305.754 36.656 304.25 37.424C302.746 38.192 301.194 38.576 299.594 38.576C297.546 38.576 295.85 37.92 294.506 36.608C293.162 35.296 292.49 33.408 292.49 30.944C292.49 29.12 292.874 27.68 293.642 26.624C294.442 25.536 295.594 24.752 297.098 24.272C298.602 23.792 300.426 23.552 302.57 23.552H307.802L307.322 24.08V20.912C307.322 19.408 306.954 18.336 306.218 17.696C305.514 17.056 304.474 16.736 303.098 16.736C302.426 16.736 301.706 16.8 300.938 16.928C300.17 17.056 299.338 17.248 298.442 17.504L299.114 16.784L298.49 20.672H294.314L293.93 13.664C296.106 13.024 298.09 12.56 299.882 12.272C301.706 11.952 303.37 11.792 304.874 11.792C307.85 11.792 310.122 12.432 311.69 13.712C313.258 14.992 314.042 16.976 314.042 19.664V34.592ZM299.258 30.272C299.258 31.456 299.53 32.336 300.074 32.912C300.65 33.456 301.37 33.728 302.234 33.728C303.034 33.728 303.914 33.488 304.874 33.008C305.834 32.496 306.746 31.808 307.61 30.944L307.322 32.096V26.624L307.802 27.104H303.674C302.01 27.104 300.858 27.36 300.218 27.872C299.578 28.384 299.258 29.184 299.258 30.272ZM330.917 38.576C328.709 38.576 326.709 38.064 324.917 37.04C323.157 35.984 321.765 34.48 320.741 32.528C319.717 30.576 319.205 28.208 319.205 25.424C319.205 22.896 319.573 20.768 320.309 19.04C321.045 17.312 322.037 15.92 323.285 14.864C324.533 13.776 325.925 12.992 327.461 12.512C328.997 12.032 330.581 11.792 332.213 11.792C333.749 11.792 335.301 11.984 336.869 12.368C338.437 12.752 339.717 13.184 340.709 13.664L340.517 20.72H336.197L335.477 16.784L336.005 17.168C335.525 16.976 334.933 16.832 334.229 16.736C333.557 16.64 332.933 16.592 332.357 16.592C330.981 16.592 329.829 16.944 328.901 17.648C328.005 18.32 327.333 19.296 326.885 20.576C326.437 21.824 326.213 23.312 326.213 25.04C326.213 26.896 326.469 28.464 326.981 29.744C327.493 31.024 328.213 32 329.141 32.672C330.101 33.312 331.205 33.632 332.453 33.632C333.445 33.632 334.533 33.424 335.717 33.008C336.901 32.592 338.133 31.968 339.413 31.136L341.669 34.544C339.877 35.92 338.085 36.944 336.293 37.616C334.501 38.256 332.709 38.576 330.917 38.576ZM352.752 38.576C350.544 38.576 348.864 37.92 347.712 36.608C346.592 35.264 346.032 33.28 346.032 30.656V15.968L346.896 16.832H342.288V13.232L346.992 12.128L346.032 13.28V6.752L352.8 5.552V13.28L352.08 12.368H359.376L359.28 16.832H352.08L352.8 15.968V29.744C352.8 31.12 353.024 32.112 353.472 32.72C353.92 33.328 354.592 33.632 355.488 33.632C356 33.632 356.56 33.552 357.168 33.392C357.808 33.2 358.496 32.96 359.232 32.672L360.48 36.368C357.792 37.84 355.216 38.576 352.752 38.576ZM385.931 38.576C383.307 38.576 380.907 37.936 378.731 36.656C376.555 35.344 374.811 33.408 373.499 30.848C372.187 28.256 371.531 25.072 371.531 21.296C371.531 17.584 372.171 14.416 373.451 11.792C374.731 9.168 376.539 7.152 378.875 5.744C381.211 4.336 383.947 3.632 387.083 3.632C388.747 3.632 390.459 3.84 392.219 4.256C393.979 4.672 395.867 5.296 397.883 6.128L397.451 14.768H393.371L392.219 9.152L393.371 10.256C392.251 9.808 391.179 9.472 390.155 9.248C389.131 9.024 388.187 8.912 387.323 8.912C385.499 8.912 383.963 9.376 382.715 10.304C381.467 11.2 380.523 12.512 379.883 14.24C379.243 15.968 378.923 18.032 378.923 20.432C378.923 23.248 379.291 25.6 380.027 27.488C380.795 29.344 381.835 30.736 383.147 31.664C384.491 32.56 385.995 33.008 387.659 33.008C388.907 33.008 390.219 32.752 391.595 32.24C393.003 31.696 394.411 30.88 395.819 29.792L398.363 33.776C396.379 35.376 394.315 36.576 392.171 37.376C390.059 38.176 387.979 38.576 385.931 38.576ZM399.674 38V34.544L403.658 33.392L402.842 34.352V4.592L403.658 5.648L399.674 4.496V1.04L409.562 0.655997V16.736L408.074 16.4C409.61 14.832 411.242 13.68 412.97 12.944C414.698 12.176 416.346 11.792 417.914 11.792C419.354 11.792 420.65 12.096 421.802 12.704C422.954 13.312 423.85 14.224 424.49 15.44C425.162 16.624 425.482 18.128 425.45 19.952V34.352L424.826 33.392L428.666 34.544V38H415.85V34.544L419.546 33.488L418.73 34.496V21.392C418.762 19.856 418.426 18.72 417.722 17.984C417.018 17.248 416.106 16.88 414.986 16.88C414.122 16.88 413.178 17.12 412.154 17.6C411.13 18.08 410.106 18.8 409.082 19.76L409.562 18.752V34.496L408.938 33.488L412.442 34.544V38H399.674ZM452.277 34.592L451.365 33.248L455.493 34.544V37.952L447.093 38.384L446.181 33.776L446.661 33.92C445.381 35.488 443.989 36.656 442.485 37.424C440.981 38.192 439.429 38.576 437.829 38.576C435.781 38.576 434.085 37.92 432.741 36.608C431.397 35.296 430.725 33.408 430.725 30.944C430.725 29.12 431.109 27.68 431.877 26.624C432.677 25.536 433.829 24.752 435.333 24.272C436.837 23.792 438.661 23.552 440.805 23.552H446.037L445.557 24.08V20.912C445.557 19.408 445.189 18.336 444.453 17.696C443.749 17.056 442.709 16.736 441.333 16.736C440.661 16.736 439.941 16.8 439.173 16.928C438.405 17.056 437.573 17.248 436.677 17.504L437.349 16.784L436.725 20.672H432.549L432.165 13.664C434.341 13.024 436.325 12.56 438.117 12.272C439.941 11.952 441.605 11.792 443.109 11.792C446.085 11.792 448.357 12.432 449.925 13.712C451.493 14.992 452.277 16.976 452.277 19.664V34.592ZM437.493 30.272C437.493 31.456 437.765 32.336 438.309 32.912C438.885 33.456 439.605 33.728 440.469 33.728C441.269 33.728 442.149 33.488 443.109 33.008C444.069 32.496 444.981 31.808 445.845 30.944L445.557 32.096V26.624L446.037 27.104H441.909C440.245 27.104 439.093 27.36 438.453 27.872C437.813 28.384 437.493 29.184 437.493 30.272ZM466.703 34.064L466.223 33.488L469.919 34.544V38H456.815V34.544L460.511 33.488L459.983 34.064V5.024L460.415 5.504L456.815 4.496V1.04L466.703 0.655997V34.064ZM481.656 34.064L481.176 33.488L484.872 34.544V38H471.768V34.544L475.464 33.488L474.936 34.064V5.024L475.368 5.504L471.768 4.496V1.04L481.656 0.655997V34.064ZM498.825 38.576C496.489 38.576 494.441 38.096 492.681 37.136C490.921 36.144 489.545 34.688 488.553 32.768C487.593 30.816 487.113 28.448 487.113 25.664C487.113 22.784 487.625 20.32 488.649 18.272C489.705 16.192 491.177 14.592 493.065 13.472C494.953 12.352 497.177 11.792 499.737 11.792C502.233 11.792 504.265 12.288 505.833 13.28C507.401 14.272 508.553 15.632 509.289 17.36C510.025 19.056 510.393 20.976 510.393 23.12C510.393 23.664 510.361 24.208 510.297 24.752C510.265 25.296 510.201 25.872 510.105 26.48H492.537V22.496H504.345L503.481 23.12C503.513 21.84 503.385 20.72 503.097 19.76C502.841 18.768 502.393 18 501.753 17.456C501.145 16.912 500.297 16.64 499.209 16.64C497.961 16.64 496.953 17.008 496.185 17.744C495.417 18.448 494.857 19.408 494.505 20.624C494.185 21.84 494.025 23.2 494.025 24.704C494.025 26.4 494.233 27.92 494.649 29.264C495.065 30.608 495.737 31.664 496.665 32.432C497.625 33.2 498.873 33.584 500.409 33.584C501.497 33.584 502.665 33.392 503.913 33.008C505.193 32.592 506.521 31.984 507.897 31.184L510.153 34.784C508.297 36.064 506.393 37.024 504.441 37.664C502.521 38.272 500.649 38.576 498.825 38.576ZM513.361 38V34.544L517.393 33.392L516.577 34.352V16.064L517.393 17.168L513.361 15.968V12.512L521.809 12.128L522.673 16.736L521.809 16.4C523.345 14.832 524.977 13.68 526.705 12.944C528.433 12.176 530.081 11.792 531.649 11.792C533.825 11.792 535.633 12.48 537.073 13.856C538.513 15.2 539.217 17.248 539.185 20V34.352L538.561 33.392L542.401 34.544V38H529.585V34.544L533.233 33.488L532.465 34.496V21.44C532.465 19.872 532.113 18.72 531.409 17.984C530.737 17.248 529.841 16.88 528.721 16.88C527.857 16.88 526.913 17.12 525.889 17.6C524.865 18.08 523.857 18.8 522.865 19.76L523.297 18.752V34.496L522.673 33.488L526.177 34.544V38H513.361ZM555.339 49.616C551.339 49.616 548.363 49.088 546.411 48.032C544.459 46.976 543.483 45.408 543.483 43.328C543.483 41.728 544.027 40.384 545.115 39.296C546.235 38.24 547.867 37.36 550.011 36.656L549.915 38C548.699 37.904 547.707 37.584 546.939 37.04C546.171 36.496 545.787 35.776 545.787 34.88C545.787 34.592 545.835 34.288 545.931 33.968C546.027 33.648 546.203 33.248 546.459 32.768C546.715 32.256 547.067 31.632 547.515 30.896C547.963 30.16 548.523 29.232 549.195 28.112L549.291 29.216C547.691 28.48 546.475 27.44 545.643 26.096C544.811 24.752 544.395 23.152 544.395 21.296C544.395 18.32 545.403 16 547.419 14.336C549.467 12.64 552.299 11.792 555.915 11.792C558.507 11.792 560.715 12.24 562.539 13.136L561.003 12.848L569.019 12.56V16.16L565.227 16.928L565.659 16.208C566.139 16.784 566.507 17.456 566.763 18.224C567.019 18.992 567.147 19.872 567.147 20.864C567.147 23.84 566.107 26.192 564.027 27.92C561.947 29.616 559.147 30.464 555.627 30.464C553.963 30.464 552.363 30.24 550.827 29.792L551.931 29.12L551.163 34.256L550.155 33.776H559.755C562.987 33.776 565.435 34.4 567.099 35.648C568.763 36.896 569.595 38.72 569.595 41.12C569.595 43.872 568.395 45.968 565.995 47.408C563.627 48.88 560.075 49.616 555.339 49.616ZM555.915 44.912C558.475 44.912 560.315 44.64 561.435 44.096C562.587 43.552 563.163 42.752 563.163 41.696C563.163 40.672 562.779 39.92 562.011 39.44C561.243 38.96 560.139 38.72 558.699 38.72H550.347L551.931 38.384C550.203 39.472 549.339 40.704 549.339 42.08C549.339 43.008 549.867 43.712 550.923 44.192C551.979 44.672 553.643 44.912 555.915 44.912ZM555.627 25.952C557.195 25.952 558.395 25.536 559.227 24.704C560.059 23.872 560.475 22.64 560.475 21.008C560.475 19.376 560.091 18.192 559.323 17.456C558.555 16.688 557.403 16.304 555.867 16.304C554.299 16.304 553.115 16.704 552.315 17.504C551.515 18.304 551.115 19.504 551.115 21.104C551.115 22.672 551.499 23.872 552.267 24.704C553.035 25.536 554.155 25.952 555.627 25.952ZM582.825 38.576C580.489 38.576 578.441 38.096 576.681 37.136C574.921 36.144 573.545 34.688 572.553 32.768C571.593 30.816 571.113 28.448 571.113 25.664C571.113 22.784 571.625 20.32 572.649 18.272C573.705 16.192 575.177 14.592 577.065 13.472C578.953 12.352 581.177 11.792 583.737 11.792C586.233 11.792 588.265 12.288 589.833 13.28C591.401 14.272 592.553 15.632 593.289 17.36C594.025 19.056 594.393 20.976 594.393 23.12C594.393 23.664 594.361 24.208 594.297 24.752C594.265 25.296 594.201 25.872 594.105 26.48H576.537V22.496H588.345L587.481 23.12C587.513 21.84 587.385 20.72 587.097 19.76C586.841 18.768 586.393 18 585.753 17.456C585.145 16.912 584.297 16.64 583.209 16.64C581.961 16.64 580.953 17.008 580.185 17.744C579.417 18.448 578.857 19.408 578.505 20.624C578.185 21.84 578.025 23.2 578.025 24.704C578.025 26.4 578.233 27.92 578.649 29.264C579.065 30.608 579.737 31.664 580.665 32.432C581.625 33.2 582.873 33.584 584.409 33.584C585.497 33.584 586.665 33.392 587.913 33.008C589.193 32.592 590.521 31.984 591.897 31.184L594.153 34.784C592.297 36.064 590.393 37.024 588.441 37.664C586.521 38.272 584.649 38.576 582.825 38.576Z" fill="#6D767D"/>
</svg>
