<svg width="217" height="26" viewBox="0 0 217 26" fill="none" xmlns="http://www.w3.org/2000/svg">
<path d="M11.62 17.26L16.24 5.6H22.08V6.4C21.64 6.4 21.28 6.44667 21 6.54C20.7333 6.62 20.5267 6.77333 20.38 7C20.2333 7.22667 20.1333 7.54 20.08 7.94C20.04 8.32667 20.02 8.82 20.02 9.42V17.18C20.02 17.8467 20.0467 18.3733 20.1 18.76C20.1533 19.1467 20.26 19.4467 20.42 19.66C20.58 19.8733 20.8067 20.0133 21.1 20.08C21.4067 20.1467 21.8067 20.1867 22.3 20.2V21H14.78V20.2C15.2733 20.1867 15.6667 20.1467 15.96 20.08C16.2667 20 16.5 19.86 16.66 19.66C16.8333 19.46 16.9467 19.18 17 18.82C17.0533 18.4467 17.08 17.9467 17.08 17.32V7.96H16.98L11.6 21.2H10.12L4.56 7.96H4.48V17.18C4.48 17.8467 4.50667 18.3733 4.56 18.76C4.61333 19.1467 4.72 19.4467 4.88 19.66C5.04 19.8733 5.26667 20.0133 5.56 20.08C5.86667 20.1467 6.26667 20.1867 6.76 20.2V21H0.6V20.2C1.09333 20.1867 1.49333 20.1467 1.8 20.08C2.10667 20 2.34 19.86 2.5 19.66C2.67333 19.46 2.78667 19.18 2.84 18.82C2.89333 18.4467 2.92 17.9467 2.92 17.32V9.28C2.92 8.72 2.89333 8.25333 2.84 7.88C2.78667 7.50667 2.68667 7.21333 2.54 7C2.39333 6.77333 2.18 6.62 1.9 6.54C1.63333 6.44667 1.27333 6.4 0.82 6.4V5.6H6.88L11.54 17.26H11.62ZM27.5819 10.2C28.3819 10.2 29.1352 10.34 29.8419 10.62C30.5619 10.8867 31.1885 11.26 31.7219 11.74C32.2685 12.22 32.6952 12.7933 33.0019 13.46C33.3219 14.1133 33.4819 14.8333 33.4819 15.62C33.4819 16.4333 33.3219 17.18 33.0019 17.86C32.6952 18.54 32.2685 19.1267 31.7219 19.62C31.1885 20.1133 30.5619 20.5 29.8419 20.78C29.1352 21.06 28.3819 21.2 27.5819 21.2C26.7952 21.2 26.0485 21.0667 25.3419 20.8C24.6352 20.52 24.0152 20.1333 23.4819 19.64C22.9485 19.1467 22.5285 18.56 22.2219 17.88C21.9152 17.1867 21.7619 16.4333 21.7619 15.62C21.7619 14.8333 21.9152 14.1067 22.2219 13.44C22.5285 12.7733 22.9485 12.2 23.4819 11.72C24.0152 11.24 24.6352 10.8667 25.3419 10.6C26.0485 10.3333 26.7952 10.2 27.5819 10.2ZM27.5819 11.36C27.1819 11.36 26.8152 11.4667 26.4819 11.68C26.1485 11.88 25.8619 12.1667 25.6219 12.54C25.3952 12.9133 25.2152 13.3667 25.0819 13.9C24.9619 14.42 24.9019 15 24.9019 15.64C24.9019 16.3067 24.9619 16.9067 25.0819 17.44C25.2152 17.9733 25.3952 18.4267 25.6219 18.8C25.8619 19.1733 26.1419 19.4667 26.4619 19.68C26.7952 19.88 27.1685 19.98 27.5819 19.98C27.9952 19.98 28.3685 19.88 28.7019 19.68C29.0485 19.4667 29.3419 19.1733 29.5819 18.8C29.8219 18.4133 30.0085 17.9533 30.1419 17.42C30.2752 16.8867 30.3419 16.2933 30.3419 15.64C30.3419 15 30.2752 14.42 30.1419 13.9C30.0085 13.38 29.8219 12.9333 29.5819 12.56C29.3419 12.1733 29.0485 11.88 28.7019 11.68C28.3685 11.4667 27.9952 11.36 27.5819 11.36ZM37.965 17.74C37.965 18.2867 37.9783 18.72 38.005 19.04C38.045 19.3467 38.1183 19.5867 38.225 19.76C38.345 19.92 38.5183 20.0267 38.745 20.08C38.985 20.1333 39.305 20.1733 39.705 20.2V21H33.405V20.2C33.7917 20.1733 34.0983 20.1333 34.325 20.08C34.565 20.0267 34.745 19.92 34.865 19.76C34.9983 19.6 35.085 19.3733 35.125 19.08C35.165 18.7867 35.185 18.3867 35.185 17.88V15.38C35.185 14.5933 35.1717 13.96 35.145 13.48C35.1183 12.9867 35.085 12.6533 35.045 12.48C35.005 12.3067 34.9517 12.1667 34.885 12.06C34.8183 11.94 34.7183 11.8533 34.585 11.8C34.4517 11.7333 34.285 11.6933 34.085 11.68C33.885 11.6533 33.6317 11.64 33.325 11.64V10.96L37.185 10.2L37.445 11.96H37.525C37.965 11.4 38.485 10.9667 39.085 10.66C39.685 10.3533 40.345 10.2 41.065 10.2C41.9183 10.2 42.605 10.32 43.125 10.56C43.6583 10.7867 44.1317 11.1733 44.545 11.72C44.7717 12.0267 44.9717 12.4267 45.145 12.92C45.3183 13.4 45.405 14.0667 45.405 14.92V17.74C45.405 18.2867 45.4183 18.72 45.445 19.04C45.485 19.3467 45.5583 19.5867 45.665 19.76C45.785 19.92 45.9583 20.0267 46.185 20.08C46.4117 20.1333 46.7183 20.1733 47.105 20.2V21H40.845V20.2C41.245 20.1867 41.5583 20.1533 41.785 20.1C42.025 20.0333 42.205 19.92 42.325 19.76C42.445 19.6 42.525 19.3733 42.565 19.08C42.605 18.7733 42.625 18.3733 42.625 17.88V15.16C42.625 14.48 42.585 13.9067 42.505 13.44C42.425 12.9733 42.2917 12.6 42.105 12.32C41.9317 12.0267 41.6983 11.82 41.405 11.7C41.1117 11.5667 40.745 11.5 40.305 11.5C39.8783 11.5 39.5117 11.62 39.205 11.86C38.8983 12.1 38.6317 12.4333 38.405 12.86C38.285 13.1 38.1783 13.4133 38.085 13.8C38.005 14.1733 37.965 14.5667 37.965 14.98V17.74ZM57.8084 17.56L60.4084 10.9C60.6618 10.2467 60.8618 9.71333 61.0084 9.3C61.1684 8.88667 61.2884 8.54667 61.3684 8.28C61.4484 8.01333 61.5018 7.8 61.5284 7.64C61.5551 7.48 61.5684 7.32667 61.5684 7.18C61.5684 6.86 61.4484 6.65333 61.2084 6.56C60.9684 6.45333 60.4884 6.4 59.7684 6.4V5.6H65.4484V6.4C64.3418 6.4 63.5751 6.94 63.1484 8.02L57.8884 21.2H56.4084L51.6284 9.52C51.3618 8.89333 51.1218 8.38 50.9084 7.98C50.6951 7.58 50.4684 7.26667 50.2284 7.04C49.9884 6.8 49.7218 6.64 49.4284 6.56C49.1484 6.46667 48.8151 6.42 48.4284 6.42V5.6H55.9884V6.42C55.6418 6.43333 55.3484 6.45333 55.1084 6.48C54.8818 6.50667 54.7018 6.55333 54.5684 6.62C54.4351 6.67333 54.3418 6.75333 54.2884 6.86C54.2351 6.95333 54.2084 7.07333 54.2084 7.22C54.2084 7.40667 54.2418 7.62667 54.3084 7.88C54.3751 8.13333 54.4751 8.44 54.6084 8.8L57.8084 17.56ZM68.5892 17.72C68.5892 18.2533 68.6092 18.68 68.6492 19C68.6892 19.32 68.7692 19.5667 68.8892 19.74C69.0092 19.9133 69.1826 20.0333 69.4092 20.1C69.6359 20.1533 69.9426 20.1867 70.3292 20.2V21H64.0292V20.2C64.4026 20.1867 64.7026 20.1467 64.9292 20.08C65.1692 20 65.3492 19.88 65.4692 19.72C65.6026 19.5467 65.6892 19.3133 65.7292 19.02C65.7826 18.7133 65.8092 18.3267 65.8092 17.86V15.4C65.8092 14.6267 65.7959 13.9933 65.7692 13.5C65.7426 12.9933 65.7092 12.6467 65.6692 12.46C65.6026 12.1267 65.4492 11.9067 65.2092 11.8C64.9826 11.6933 64.5626 11.64 63.9492 11.64V10.96L68.5892 10.2V17.72ZM65.6492 5.96C65.6492 5.52 65.7959 5.15333 66.0892 4.86C66.3959 4.55333 66.7626 4.4 67.1892 4.4C67.6292 4.4 67.9959 4.55333 68.2892 4.86C68.5959 5.15333 68.7492 5.52 68.7492 5.96C68.7492 6.38667 68.5959 6.75333 68.2892 7.06C67.9959 7.35333 67.6292 7.5 67.1892 7.5C66.7626 7.5 66.3959 7.35333 66.0892 7.06C65.7959 6.75333 65.6492 6.38667 65.6492 5.96ZM80.0758 19.14C78.8624 20.5133 77.3491 21.2 75.5358 21.2C74.7091 21.2 73.9558 21.0733 73.2758 20.82C72.6091 20.5533 72.0358 20.1867 71.5558 19.72C71.0758 19.24 70.7024 18.6733 70.4358 18.02C70.1691 17.3667 70.0358 16.64 70.0358 15.84C70.0358 15.0133 70.1758 14.26 70.4558 13.58C70.7358 12.8867 71.1291 12.2933 71.6358 11.8C72.1558 11.2933 72.7624 10.9 73.4558 10.62C74.1624 10.34 74.9358 10.2 75.7758 10.2C77.1891 10.2 78.2891 10.58 79.0758 11.34C79.8624 12.1 80.2558 13.1667 80.2558 14.54C80.2558 14.7533 80.2224 14.8867 80.1558 14.94C80.0891 14.98 79.9024 15 79.5958 15H73.1558C73.1024 15.12 73.0758 15.34 73.0758 15.66C73.0758 16.9667 73.3558 18 73.9158 18.76C74.4891 19.52 75.2624 19.9 76.2358 19.9C76.7958 19.9 77.3491 19.7733 77.8958 19.52C78.4558 19.2667 78.9958 18.9067 79.5158 18.44L80.0758 19.14ZM76.1958 13.88C76.7291 13.88 77.0691 13.8533 77.2158 13.8C77.3758 13.7333 77.4558 13.5867 77.4558 13.36C77.4558 12.7733 77.2891 12.2933 76.9558 11.92C76.6224 11.5467 76.2024 11.36 75.6958 11.36C75.1224 11.36 74.6091 11.6 74.1558 12.08C73.7158 12.5467 73.4291 13.1467 73.2958 13.88H76.1958ZM88.875 13.68C88.875 13.1467 88.8617 12.7267 88.835 12.42C88.8083 12.1 88.735 11.86 88.615 11.7C88.495 11.5267 88.315 11.4133 88.075 11.36C87.8483 11.2933 87.535 11.24 87.135 11.2V10.4H91.655V16.46C91.655 17.2733 91.6617 17.9133 91.675 18.38C91.7017 18.8333 91.7417 19.1733 91.795 19.4C91.835 19.5733 91.8817 19.7133 91.935 19.82C91.9883 19.9133 92.075 19.9933 92.195 20.06C92.315 20.1133 92.475 20.1533 92.675 20.18C92.8883 20.1933 93.1617 20.2 93.495 20.2V20.98L89.515 21.22L89.295 19.44H89.215C88.8683 20 88.3817 20.4333 87.755 20.74C87.1283 21.0467 86.4283 21.2 85.655 21.2C84.2283 21.2 83.1417 20.6933 82.395 19.68C81.8217 18.9067 81.535 17.8067 81.535 16.38V13.68C81.535 13.1333 81.5217 12.7067 81.495 12.4C81.4683 12.08 81.395 11.84 81.275 11.68C81.1683 11.52 81.0017 11.4133 80.775 11.36C80.5483 11.2933 80.235 11.24 79.835 11.2V10.4H84.315V16.06C84.315 17.4067 84.4817 18.3867 84.815 19C85.1483 19.6 85.6817 19.9 86.415 19.9C87.2017 19.9 87.8083 19.54 88.235 18.82C88.6617 18.1267 88.875 17.1067 88.875 15.76V13.68ZM100.475 12.92C100.755 12.56 100.941 12.3067 101.035 12.16C101.128 12.0133 101.175 11.8667 101.175 11.72C101.175 11.5333 101.095 11.4 100.935 11.32C100.788 11.24 100.535 11.2 100.175 11.2V10.4H104.775V11.2C104.521 11.2133 104.295 11.24 104.095 11.28C103.895 11.32 103.695 11.4 103.495 11.52C103.295 11.6267 103.088 11.78 102.875 11.98C102.661 12.18 102.415 12.44 102.135 12.76L100.095 15.12L103.255 19.18C103.561 19.58 103.861 19.8533 104.155 20C104.448 20.1333 104.815 20.2 105.255 20.2V21H98.8947V20.2C99.2814 20.2 99.548 20.1667 99.6947 20.1C99.8547 20.0333 99.9347 19.9067 99.9347 19.72C99.9347 19.5733 99.888 19.42 99.7947 19.26C99.7014 19.0867 99.5614 18.8667 99.3747 18.6L98.2147 17L97.3347 18.06C97.108 18.34 96.928 18.5667 96.7947 18.74C96.6614 18.9133 96.5614 19.0533 96.4947 19.16C96.428 19.2667 96.3814 19.3533 96.3547 19.42C96.3414 19.4733 96.3347 19.5267 96.3347 19.58C96.3347 19.8067 96.428 19.9667 96.6147 20.06C96.8147 20.1533 97.128 20.2 97.5547 20.2V21H92.5347V20.2C92.9614 20.2 93.3747 20.14 93.7747 20.02C94.1747 19.8867 94.488 19.6867 94.7147 19.42L97.4947 16.16L94.1547 11.92C93.9014 11.6 93.6747 11.4 93.4747 11.32C93.288 11.24 93.028 11.2 92.6947 11.2V10.4H98.7947V11.2C98.1147 11.2 97.7747 11.3867 97.7747 11.76C97.7747 11.8933 97.848 12.0667 97.9947 12.28L99.4147 14.28L100.475 12.92ZM116.342 21.2C115.142 21.2 114.055 21.0267 113.082 20.68C112.122 20.32 111.302 19.8133 110.622 19.16C109.955 18.4933 109.435 17.6933 109.062 16.76C108.702 15.8133 108.522 14.7533 108.522 13.58C108.522 12.3667 108.715 11.26 109.102 10.26C109.502 9.24667 110.055 8.38 110.762 7.66C111.469 6.94 112.315 6.38667 113.302 6C114.289 5.6 115.382 5.4 116.582 5.4C117.409 5.4 118.195 5.51333 118.942 5.74C119.689 5.96667 120.495 6.33333 121.362 6.84L121.742 5.6H122.462V10.66H121.462C121.195 9.40667 120.655 8.43333 119.842 7.74C119.042 7.04667 118.035 6.7 116.822 6.7C115.289 6.7 114.095 7.29333 113.242 8.48C112.402 9.65333 111.982 11.3 111.982 13.42C111.982 15.5 112.395 17.0933 113.222 18.2C114.049 19.3067 115.249 19.86 116.822 19.86C117.955 19.86 118.835 19.5733 119.462 19C120.102 18.4133 120.422 17.6067 120.422 16.58C120.422 15.9667 120.262 15.52 119.942 15.24C119.622 14.9467 119.082 14.7667 118.322 14.7V13.9H124.802V14.7C124.149 14.7 123.695 14.8467 123.442 15.14C123.189 15.42 123.062 15.9333 123.062 16.68V19.34C122.769 19.34 122.522 19.3533 122.322 19.38C122.122 19.3933 121.922 19.4333 121.722 19.5C121.535 19.5533 121.322 19.6467 121.082 19.78C120.842 19.9133 120.542 20.0867 120.182 20.3C119.155 20.9 117.875 21.2 116.342 21.2ZM128.862 17.9C128.862 18.42 128.882 18.8333 128.922 19.14C128.975 19.4333 129.075 19.66 129.222 19.82C129.368 19.98 129.582 20.0867 129.862 20.14C130.142 20.18 130.515 20.2 130.982 20.2V21H124.302V20.2C124.702 20.1733 125.022 20.1333 125.262 20.08C125.502 20.0267 125.682 19.92 125.802 19.76C125.922 19.6 125.995 19.3733 126.022 19.08C126.062 18.7733 126.082 18.3667 126.082 17.86V15.42C126.082 14.5933 126.062 13.9333 126.022 13.44C125.982 12.9467 125.895 12.5667 125.762 12.3C125.628 12.0333 125.435 11.86 125.182 11.78C124.942 11.6867 124.622 11.64 124.222 11.64V10.94L128.222 10.2L128.542 12.5H128.622C128.982 11.7933 129.455 11.2333 130.042 10.82C130.628 10.4067 131.248 10.2 131.902 10.2C132.408 10.2 132.822 10.3267 133.142 10.58C133.462 10.8333 133.622 11.1533 133.622 11.54C133.622 11.9667 133.495 12.3267 133.242 12.62C133.002 12.9133 132.668 13.06 132.242 13.06C132.042 13.06 131.862 13.02 131.702 12.94C131.542 12.86 131.395 12.7733 131.262 12.68C131.142 12.5733 131.015 12.48 130.882 12.4C130.762 12.3067 130.635 12.26 130.502 12.26C130.248 12.26 130.008 12.4267 129.782 12.76C129.555 13.0933 129.368 13.54 129.222 14.1C129.115 14.5 129.028 14.9533 128.962 15.46C128.895 15.9533 128.862 16.4467 128.862 16.94V17.9ZM137.402 17.72C137.402 18.2533 137.422 18.68 137.462 19C137.502 19.32 137.582 19.5667 137.702 19.74C137.822 19.9133 137.996 20.0333 138.222 20.1C138.449 20.1533 138.756 20.1867 139.142 20.2V21H132.842V20.2C133.216 20.1867 133.516 20.1467 133.742 20.08C133.982 20 134.162 19.88 134.282 19.72C134.416 19.5467 134.502 19.3133 134.542 19.02C134.596 18.7133 134.622 18.3267 134.622 17.86V15.4C134.622 14.6267 134.609 13.9933 134.582 13.5C134.556 12.9933 134.522 12.6467 134.482 12.46C134.416 12.1267 134.262 11.9067 134.022 11.8C133.796 11.6933 133.376 11.64 132.762 11.64V10.96L137.402 10.2V17.72ZM134.462 5.96C134.462 5.52 134.609 5.15333 134.902 4.86C135.209 4.55333 135.576 4.4 136.002 4.4C136.442 4.4 136.809 4.55333 137.102 4.86C137.409 5.15333 137.562 5.52 137.562 5.96C137.562 6.38667 137.409 6.75333 137.102 7.06C136.809 7.35333 136.442 7.5 136.002 7.5C135.576 7.5 135.209 7.35333 134.902 7.06C134.609 6.75333 134.462 6.38667 134.462 5.96ZM143.249 17.7C143.249 18.26 143.262 18.7 143.289 19.02C143.316 19.34 143.389 19.5867 143.509 19.76C143.629 19.92 143.802 20.0267 144.029 20.08C144.256 20.1333 144.569 20.1733 144.969 20.2V21H138.649V20.2C139.049 20.1733 139.369 20.1333 139.609 20.08C139.849 20.0267 140.029 19.92 140.149 19.76C140.269 19.6 140.349 19.3733 140.389 19.08C140.429 18.7733 140.449 18.3667 140.449 17.86V15.38C140.449 14.62 140.436 13.9867 140.409 13.48C140.396 12.9733 140.362 12.6267 140.309 12.44C140.269 12.2667 140.216 12.1333 140.149 12.04C140.096 11.9333 140.002 11.8533 139.869 11.8C139.749 11.7333 139.589 11.6933 139.389 11.68C139.189 11.6533 138.929 11.64 138.609 11.64V10.96L142.469 10.2L142.709 11.94H142.829C143.389 11.3133 143.949 10.8667 144.509 10.6C145.082 10.3333 145.742 10.2 146.489 10.2C147.369 10.2 148.096 10.3533 148.669 10.66C149.242 10.9667 149.676 11.4067 149.969 11.98H150.049C150.529 11.42 151.102 10.9867 151.769 10.68C152.436 10.36 153.149 10.2 153.909 10.2C154.709 10.2 155.402 10.3 155.989 10.5C156.589 10.7 157.056 10.9867 157.389 11.36C157.656 11.6667 157.849 12.0667 157.969 12.56C158.102 13.0533 158.169 13.74 158.169 14.62V17.7C158.169 18.2467 158.182 18.68 158.209 19C158.249 19.32 158.329 19.5667 158.449 19.74C158.569 19.9133 158.742 20.0267 158.969 20.08C159.196 20.1333 159.509 20.1733 159.909 20.2V21H153.589V20.2C153.989 20.1867 154.302 20.1533 154.529 20.1C154.769 20.0333 154.949 19.92 155.069 19.76C155.202 19.5867 155.282 19.3533 155.309 19.06C155.349 18.7667 155.369 18.3667 155.369 17.86V15.24C155.369 14.5467 155.329 13.96 155.249 13.48C155.169 13 155.042 12.6133 154.869 12.32C154.696 12.0267 154.462 11.82 154.169 11.7C153.889 11.5667 153.542 11.5 153.129 11.5C152.662 11.5 152.276 11.6133 151.969 11.84C151.676 12.0667 151.429 12.36 151.229 12.72C150.882 13.3467 150.709 14.1267 150.709 15.06V17.7C150.709 18.2467 150.722 18.68 150.749 19C150.776 19.32 150.849 19.5667 150.969 19.74C151.089 19.9133 151.262 20.0267 151.489 20.08C151.729 20.1333 152.056 20.1733 152.469 20.2V21H146.129V20.2C146.529 20.1733 146.842 20.1333 147.069 20.08C147.309 20.0267 147.489 19.92 147.609 19.76C147.742 19.6 147.822 19.3733 147.849 19.08C147.889 18.7733 147.909 18.3667 147.909 17.86V15.24C147.909 14.5467 147.869 13.96 147.789 13.48C147.709 13 147.576 12.6133 147.389 12.32C147.216 12.0267 146.982 11.82 146.689 11.7C146.396 11.5667 146.029 11.5 145.589 11.5C145.149 11.5 144.782 11.6067 144.489 11.82C144.209 12.0333 143.976 12.32 143.789 12.68C143.616 13 143.482 13.3667 143.389 13.78C143.296 14.1933 143.249 14.62 143.249 15.06V17.7ZM165.378 10.2C166.178 10.2 166.931 10.34 167.638 10.62C168.358 10.8867 168.985 11.26 169.518 11.74C170.065 12.22 170.491 12.7933 170.798 13.46C171.118 14.1133 171.278 14.8333 171.278 15.62C171.278 16.4333 171.118 17.18 170.798 17.86C170.491 18.54 170.065 19.1267 169.518 19.62C168.985 20.1133 168.358 20.5 167.638 20.78C166.931 21.06 166.178 21.2 165.378 21.2C164.591 21.2 163.845 21.0667 163.138 20.8C162.431 20.52 161.811 20.1333 161.278 19.64C160.745 19.1467 160.325 18.56 160.018 17.88C159.711 17.1867 159.558 16.4333 159.558 15.62C159.558 14.8333 159.711 14.1067 160.018 13.44C160.325 12.7733 160.745 12.2 161.278 11.72C161.811 11.24 162.431 10.8667 163.138 10.6C163.845 10.3333 164.591 10.2 165.378 10.2ZM165.378 11.36C164.978 11.36 164.611 11.4667 164.278 11.68C163.945 11.88 163.658 12.1667 163.418 12.54C163.191 12.9133 163.011 13.3667 162.878 13.9C162.758 14.42 162.698 15 162.698 15.64C162.698 16.3067 162.758 16.9067 162.878 17.44C163.011 17.9733 163.191 18.4267 163.418 18.8C163.658 19.1733 163.938 19.4667 164.258 19.68C164.591 19.88 164.965 19.98 165.378 19.98C165.791 19.98 166.165 19.88 166.498 19.68C166.845 19.4667 167.138 19.1733 167.378 18.8C167.618 18.4133 167.805 17.9533 167.938 17.42C168.071 16.8867 168.138 16.2933 168.138 15.64C168.138 15 168.071 14.42 167.938 13.9C167.805 13.38 167.618 12.9333 167.378 12.56C167.138 12.1733 166.845 11.88 166.498 11.68C166.165 11.4667 165.791 11.36 165.378 11.36ZM175.761 17.72C175.761 18.2533 175.781 18.68 175.821 19C175.861 19.32 175.941 19.5667 176.061 19.74C176.181 19.9133 176.354 20.0333 176.581 20.1C176.808 20.1533 177.114 20.1867 177.501 20.2V21H171.201V20.2C171.574 20.1867 171.874 20.1467 172.101 20.08C172.341 20 172.521 19.88 172.641 19.72C172.774 19.5467 172.861 19.3133 172.901 19.02C172.954 18.7133 172.981 18.3267 172.981 17.86V15.4C172.981 14.6267 172.968 13.9933 172.941 13.5C172.914 12.9933 172.881 12.6467 172.841 12.46C172.774 12.1267 172.621 11.9067 172.381 11.8C172.154 11.6933 171.734 11.64 171.121 11.64V10.96L175.761 10.2V17.72ZM172.821 5.96C172.821 5.52 172.968 5.15333 173.261 4.86C173.568 4.55333 173.934 4.4 174.361 4.4C174.801 4.4 175.168 4.55333 175.461 4.86C175.768 5.15333 175.921 5.52 175.921 5.96C175.921 6.38667 175.768 6.75333 175.461 7.06C175.168 7.35333 174.801 7.5 174.361 7.5C173.934 7.5 173.568 7.35333 173.261 7.06C172.968 6.75333 172.821 6.38667 172.821 5.96ZM181.608 17.9C181.608 18.42 181.628 18.8333 181.668 19.14C181.721 19.4333 181.821 19.66 181.968 19.82C182.114 19.98 182.328 20.0867 182.608 20.14C182.888 20.18 183.261 20.2 183.728 20.2V21H177.048V20.2C177.448 20.1733 177.768 20.1333 178.008 20.08C178.248 20.0267 178.428 19.92 178.548 19.76C178.668 19.6 178.741 19.3733 178.768 19.08C178.808 18.7733 178.828 18.3667 178.828 17.86V15.42C178.828 14.5933 178.808 13.9333 178.768 13.44C178.728 12.9467 178.641 12.5667 178.508 12.3C178.374 12.0333 178.181 11.86 177.928 11.78C177.688 11.6867 177.368 11.64 176.968 11.64V10.94L180.968 10.2L181.288 12.5H181.368C181.728 11.7933 182.201 11.2333 182.788 10.82C183.374 10.4067 183.994 10.2 184.648 10.2C185.154 10.2 185.568 10.3267 185.888 10.58C186.208 10.8333 186.368 11.1533 186.368 11.54C186.368 11.9667 186.241 12.3267 185.988 12.62C185.748 12.9133 185.414 13.06 184.988 13.06C184.788 13.06 184.608 13.02 184.448 12.94C184.288 12.86 184.141 12.7733 184.008 12.68C183.888 12.5733 183.761 12.48 183.628 12.4C183.508 12.3067 183.381 12.26 183.248 12.26C182.994 12.26 182.754 12.4267 182.528 12.76C182.301 13.0933 182.114 13.54 181.968 14.1C181.861 14.5 181.774 14.9533 181.708 15.46C181.641 15.9533 181.608 16.4467 181.608 16.94V17.9ZM195.691 19.14C194.478 20.5133 192.965 21.2 191.151 21.2C190.325 21.2 189.571 21.0733 188.891 20.82C188.225 20.5533 187.651 20.1867 187.171 19.72C186.691 19.24 186.318 18.6733 186.051 18.02C185.785 17.3667 185.651 16.64 185.651 15.84C185.651 15.0133 185.791 14.26 186.071 13.58C186.351 12.8867 186.745 12.2933 187.251 11.8C187.771 11.2933 188.378 10.9 189.071 10.62C189.778 10.34 190.551 10.2 191.391 10.2C192.805 10.2 193.905 10.58 194.691 11.34C195.478 12.1 195.871 13.1667 195.871 14.54C195.871 14.7533 195.838 14.8867 195.771 14.94C195.705 14.98 195.518 15 195.211 15H188.771C188.718 15.12 188.691 15.34 188.691 15.66C188.691 16.9667 188.971 18 189.531 18.76C190.105 19.52 190.878 19.9 191.851 19.9C192.411 19.9 192.965 19.7733 193.511 19.52C194.071 19.2667 194.611 18.9067 195.131 18.44L195.691 19.14ZM191.811 13.88C192.345 13.88 192.685 13.8533 192.831 13.8C192.991 13.7333 193.071 13.5867 193.071 13.36C193.071 12.7733 192.905 12.2933 192.571 11.92C192.238 11.5467 191.818 11.36 191.311 11.36C190.738 11.36 190.225 11.6 189.771 12.08C189.331 12.5467 189.045 13.1467 188.911 13.88H191.811Z" fill="#000000"/>
<rect x="200.375" y="4.375" width="5.25" height="17.25" rx="0.625" stroke="#000000" stroke-width="0.75"/>
<rect x="206.243" y="5.448" width="5.55228" height="17.25" rx="0.625" transform="rotate(-15 206.243 5.448)" stroke="#000000" stroke-width="0.75"/>
</svg>
