<svg width="184" height="65" viewBox="0 0 184 65" fill="none" xmlns="http://www.w3.org/2000/svg">
<path d="M25.6431 61.0232C24.9092 61.1952 24.1321 61.3457 23.3119 61.4748C22.5348 61.5608 21.6283 61.6038 20.5922 61.6038C17.9588 61.6038 15.3902 61.0877 12.8863 60.0554C10.4256 59.0232 8.2455 57.5823 6.34601 55.7328C4.44653 53.8834 2.91399 51.7113 1.74839 49.2167C0.582797 46.7221 0 44.0124 0 41.0877C0 38.249 0.539627 35.5823 1.61888 33.0877C2.69814 30.593 4.16592 28.421 6.02224 26.5715C7.87855 24.6791 10.0586 23.1952 12.5625 22.1199C15.0664 21.0447 17.7429 20.507 20.5922 20.507C23.4414 20.507 26.1179 21.0447 28.6218 22.1199C31.1257 23.1952 33.3058 24.6791 35.1621 26.5715C37.0616 28.421 38.551 30.593 39.6302 33.0877C40.7095 35.5823 41.2491 38.249 41.2491 41.0877C41.2491 43.1092 40.9685 45.0662 40.4073 46.9586C39.8461 48.8081 39.0474 50.5285 38.0113 52.1199C37.0184 53.6683 35.8097 55.0877 34.385 56.378C32.9604 57.6253 31.4063 58.6576 29.7227 59.4748C30.0248 59.7758 30.435 59.9909 30.953 60.1199C31.471 60.2059 31.9675 60.3135 32.4424 60.4425C32.9604 60.5715 33.3921 60.7651 33.7375 61.0232C34.0828 61.2812 34.2555 61.7328 34.2555 62.378C34.2555 62.9371 34.0613 63.4103 33.6727 63.7973C33.2842 64.1844 32.8093 64.378 32.2481 64.378C30.8235 64.378 29.55 64.0554 28.4276 63.4103C27.3051 62.7651 26.377 61.9694 25.6431 61.0232ZM12.8215 54.4425C12.8215 53.2382 13.0158 52.1414 13.4043 51.1522C13.836 50.1199 14.3973 49.2382 15.088 48.507C15.8219 47.7328 16.6421 47.1522 17.5487 46.7651C18.4984 46.335 19.5129 46.1199 20.5922 46.1199C21.6283 46.1199 22.5996 46.335 23.5062 46.7651C24.4559 47.1522 25.2761 47.7113 25.9669 48.4425C26.7007 49.1307 27.262 49.9479 27.6505 50.8941C28.0822 51.7973 28.298 52.7651 28.298 53.7973V54.507L28.1038 55.8619C29.4421 55.1737 30.6724 54.335 31.7948 53.3457C32.9172 52.3135 33.867 51.1737 34.6441 49.9264C35.4643 48.6361 36.0903 47.2597 36.522 45.7973C36.9968 44.292 37.2343 42.7221 37.2343 41.0877C37.2343 38.8081 36.8026 36.6576 35.9392 34.6361C35.0758 32.6146 33.8886 30.8511 32.3776 29.3457C30.8667 27.8404 29.0967 26.6576 27.0677 25.7973C25.0387 24.9371 22.8802 24.507 20.5922 24.507C18.3041 24.507 16.1456 24.9371 14.1166 25.7973C12.0876 26.6576 10.3177 27.8404 8.80671 29.3457C7.33893 30.8511 6.17333 32.6146 5.30993 34.6361C4.44653 36.6576 4.01482 38.8081 4.01482 41.0877C4.01482 44.3135 4.83506 47.2382 6.47553 49.8619C8.11599 52.4425 10.2745 54.421 12.951 55.7973L12.8215 54.4425ZM20.5922 57.6038C21.6283 57.6038 22.5132 57.2382 23.2471 56.507C23.981 55.7758 24.348 54.8941 24.348 53.8619C24.348 52.8296 23.981 51.9479 23.2471 51.2167C22.5132 50.4855 21.6283 50.1199 20.5922 50.1199C19.5561 50.1199 18.6711 50.4855 17.9372 51.2167C17.2033 51.9479 16.8364 52.8296 16.8364 53.8619C16.8364 54.8511 17.1817 55.7113 17.8724 56.4425C18.5632 57.1307 19.4697 57.5178 20.5922 57.6038Z" fill="black"/>
<path d="M63.9266 31.4748C64.0561 31.1307 64.2935 30.8511 64.6389 30.6361C64.9842 30.421 65.3512 30.3135 65.7397 30.3135C66.3441 30.3135 66.819 30.5285 67.1643 30.9586C67.5529 31.3457 67.7471 31.7758 67.7471 32.249C67.7471 32.507 67.6824 32.7651 67.5529 33.0232C67.5097 33.0662 67.4018 33.3242 67.2291 33.7973C67.0996 34.2275 66.8406 34.9586 66.452 35.9909C66.0635 36.9801 65.5455 38.3135 64.8979 39.9909C64.2935 41.6683 63.5165 43.7758 62.5667 46.3135L65.5455 54.378L74.2874 31.4748C74.4169 31.1307 74.6544 30.8511 74.9997 30.6361C75.3451 30.421 75.712 30.3135 76.1006 30.3135C76.7049 30.3135 77.1798 30.5285 77.5252 30.9586C77.9137 31.3457 78.108 31.7758 78.108 32.249C78.108 32.507 78.0432 32.7651 77.9137 33.0232C77.8705 33.1092 77.6979 33.5608 77.3957 34.378C77.1366 35.1522 76.6186 36.55 75.8415 38.5715C75.1076 40.593 74.0716 43.3457 72.7333 46.8296C71.4382 50.2705 69.7545 54.6576 67.6824 59.9909C67.5097 60.464 67.2507 60.8511 66.9053 61.1522C66.6031 61.4533 66.1498 61.6038 65.5455 61.6038C64.9411 61.6038 64.4446 61.4318 64.0561 61.0877C63.7107 60.7006 63.4733 60.335 63.3438 59.9909C62.7826 58.4855 62.2645 57.0447 61.7897 55.6683C61.3148 54.249 60.8615 52.9371 60.4298 51.7328C59.9549 52.9371 59.4585 54.249 58.9404 55.6683C58.4656 57.0447 57.9259 58.4855 57.3215 59.9909C57.1489 60.464 56.8898 60.8511 56.5445 61.1522C56.2423 61.4533 55.789 61.6038 55.1846 61.6038C54.5802 61.6038 54.0838 61.4318 53.6952 61.0877C53.3499 60.7006 53.1124 60.335 52.9829 59.9909C51.1698 55.0447 49.6373 50.8726 48.3853 47.4748C47.1334 44.0339 46.1189 41.2812 45.3418 39.2167C44.5648 37.1092 44.0035 35.5823 43.6582 34.6361C43.3128 33.6898 43.1401 33.1952 43.1401 33.1522C43.0106 32.8941 42.9459 32.593 42.9459 32.249C42.9459 31.6898 43.097 31.2382 43.3992 30.8941C43.7445 30.507 44.2194 30.3135 44.8238 30.3135C45.2987 30.3135 45.7088 30.421 46.0541 30.6361C46.3995 30.8511 46.6369 31.1307 46.7664 31.4748L55.1846 54.378L58.2929 46.249C57.4295 43.9264 56.6956 41.9479 56.0912 40.3135C55.4868 38.6361 54.9904 37.2812 54.6018 36.249C54.2133 35.2167 53.9327 34.464 53.76 33.9909C53.5873 33.4748 53.501 33.1952 53.501 33.1522C53.3715 32.8941 53.3067 32.593 53.3067 32.249C53.3067 31.6898 53.4578 31.2382 53.76 30.8941C54.1054 30.507 54.5802 30.3135 55.1846 30.3135C55.6595 30.3135 56.0696 30.421 56.415 30.6361C56.7603 30.8511 56.9978 31.1307 57.1273 31.4748L60.4298 40.8296L63.9266 31.4748Z" fill="black"/>
<path d="M82.4339 47.9264C82.6498 49.3027 83.1031 50.593 83.7938 51.7973C84.4845 52.9586 85.3263 53.9694 86.3192 54.8296C87.3553 55.6898 88.5209 56.378 89.816 56.8941C91.1111 57.3672 92.471 57.6038 93.8956 57.6038C95.4929 57.6038 96.9823 57.3242 98.3637 56.7651C99.7452 56.1629 100.976 55.3457 102.055 54.3135C102.443 53.9264 102.918 53.7328 103.479 53.7328C104.041 53.7328 104.515 53.9264 104.904 54.3135C105.293 54.7006 105.487 55.1737 105.487 55.7328C105.487 56.292 105.293 56.7651 104.904 57.1522C103.479 58.7436 101.861 59.8834 100.047 60.5715C98.2774 61.2167 96.2268 61.5393 93.8956 61.5393C91.7371 61.5393 89.7081 61.1522 87.8086 60.378C85.9523 59.6038 84.3118 58.5285 82.8872 57.1522C81.4626 55.7758 80.3402 54.1414 79.5199 52.249C78.6997 50.3565 78.2896 48.292 78.2896 46.0554C78.2896 43.9049 78.6781 41.9049 79.4552 40.0554C80.2754 38.1629 81.3763 36.5285 82.7577 35.1522C84.1823 33.7328 85.8444 32.6146 87.7439 31.7973C89.6865 30.9371 91.7803 30.464 94.0251 30.378C96.0541 30.378 97.9968 30.7866 99.8531 31.6038C101.753 32.421 103.415 33.5393 104.839 34.9586C106.264 36.378 107.408 38.0339 108.271 39.9264C109.135 41.7758 109.566 43.7758 109.566 45.9264C109.566 46.5715 109.351 47.0662 108.919 47.4102C108.487 47.7543 108.034 47.9264 107.559 47.9264H82.4339ZM105.357 43.9264C105.098 42.593 104.623 41.3457 103.933 40.1844C103.242 39.0232 102.379 38.0339 101.342 37.2167C100.35 36.3565 99.2055 35.6898 97.9104 35.2167C96.6585 34.7006 95.3202 34.4425 93.8956 34.4425C92.471 34.4425 91.1111 34.7006 89.816 35.2167C88.5641 35.6898 87.4201 36.3565 86.384 37.2167C85.3911 38.0339 84.5493 39.0232 83.8585 40.1844C83.211 41.3457 82.7577 42.593 82.4987 43.9264H105.357Z" fill="black"/>
<path d="M112.512 32.249C112.512 31.6898 112.706 31.2167 113.095 30.8296C113.483 30.4425 113.958 30.249 114.519 30.249C115.08 30.249 115.555 30.4425 115.944 30.8296C116.332 31.2167 116.527 31.6898 116.527 32.249V33.0877C117.519 32.2275 118.663 31.5393 119.959 31.0232C121.254 30.507 122.635 30.249 124.103 30.249C125.7 30.249 127.211 30.55 128.636 31.1522C130.06 31.7543 131.291 32.593 132.327 33.6683C133.406 34.7006 134.248 35.9264 134.852 37.3457C135.457 38.7651 135.759 40.2705 135.759 41.8619V59.6038C135.759 60.1629 135.565 60.6361 135.176 61.0232C134.788 61.4103 134.313 61.6038 133.751 61.6038C133.19 61.6038 132.715 61.4103 132.327 61.0232C131.938 60.6361 131.744 60.1629 131.744 59.6038V41.8619C131.744 40.8296 131.528 39.8619 131.096 38.9586C130.708 38.0124 130.168 37.1952 129.478 36.507C128.787 35.8189 127.967 35.2812 127.017 34.8941C126.11 34.507 125.139 34.3135 124.103 34.3135C123.067 34.3135 122.096 34.507 121.189 34.8941C120.282 35.2812 119.484 35.7973 118.793 36.4425C118.102 37.0877 117.563 37.8619 117.174 38.7651C116.786 39.6253 116.57 40.55 116.527 41.5393V59.6038C116.527 60.1629 116.332 60.6361 115.944 61.0232C115.555 61.4103 115.08 61.6038 114.519 61.6038C113.958 61.6038 113.483 61.4103 113.095 61.0232C112.706 60.6361 112.512 60.1629 112.512 59.6038V32.249Z" fill="black"/>
<path d="M143.234 22.378C143.234 21.8189 143.428 21.3457 143.817 20.9586C144.205 20.5715 144.68 20.378 145.241 20.378C145.803 20.378 146.278 20.5715 146.666 20.9586C147.055 21.3457 147.249 21.8189 147.249 22.378V30.249H151.523C152.084 30.249 152.559 30.4425 152.947 30.8296C153.336 31.2167 153.53 31.6898 153.53 32.249C153.53 32.8081 153.336 33.2812 152.947 33.6683C152.559 34.0554 152.084 34.249 151.523 34.249H147.249V59.6038C147.249 60.1629 147.055 60.6361 146.666 61.0232C146.278 61.4103 145.803 61.6038 145.241 61.6038C144.68 61.6038 144.205 61.4103 143.817 61.0232C143.428 60.6361 143.234 60.1629 143.234 59.6038V34.249H138.96C138.399 34.249 137.924 34.0554 137.536 33.6683C137.147 33.2812 136.953 32.8081 136.953 32.249C136.953 31.6898 137.147 31.2167 137.536 30.8296C137.924 30.4425 138.399 30.249 138.96 30.249H143.234V22.378Z" fill="black"/>
<path d="M179.985 55.7328C178.561 57.3242 176.834 58.7006 174.805 59.8619C172.819 60.9801 170.66 61.5393 168.329 61.5393C166.171 61.5393 164.142 61.1522 162.242 60.378C160.386 59.6038 158.745 58.5285 157.321 57.1522C155.896 55.7758 154.774 54.1414 153.954 52.249C153.133 50.3565 152.723 48.292 152.723 46.0554C152.723 43.9049 153.112 41.8834 153.889 39.9909C154.709 38.0554 155.81 36.378 157.191 34.9586C158.616 33.5393 160.278 32.421 162.177 31.6038C164.12 30.7866 166.214 30.378 168.459 30.378C170.531 30.378 172.495 30.8081 174.351 31.6683C176.251 32.4855 177.913 33.6038 179.338 35.0232C180.762 36.4425 181.72 36.7492 181.72 36.7492C176.943 32.3748 184 23.7275 184 25.878V59.6683C184 60.2275 183.806 60.7006 183.417 61.0877C183.029 61.4748 182.554 61.6683 181.993 61.6683C181.431 61.6683 180.957 61.4748 180.568 61.0877C180.179 60.7006 179.985 60.2275 179.985 59.6683V55.7328ZM179.985 46.0554C179.985 44.464 179.683 42.9586 179.079 41.5393C178.474 40.1199 177.632 38.8941 176.553 37.8619C175.517 36.7866 174.287 35.9479 172.862 35.3457C171.437 34.7436 169.927 34.4425 168.329 34.4425C166.732 34.4425 165.221 34.7436 163.796 35.3457C162.415 35.9479 161.185 36.7866 160.105 37.8619C159.069 38.8941 158.249 40.1199 157.645 41.5393C157.04 42.9586 156.738 44.464 156.738 46.0554C156.738 47.6468 157.04 49.1522 157.645 50.5715C158.249 51.9479 159.069 53.1737 160.105 54.249C161.185 55.2812 162.415 56.0984 163.796 56.7006C165.221 57.3027 166.732 57.6038 168.329 57.6038C169.883 57.6038 171.351 57.3242 172.733 56.7651C174.114 56.1629 175.323 55.3457 176.359 54.3135C177.438 53.2812 178.28 52.0769 178.884 50.7006C179.532 49.2812 179.899 47.7328 179.985 46.0554Z" fill="black"/>
<path d="M9.61412 0.743909H12.1019V13.2128H10.7311V1.89359L10.7734 1.91049L7.59175 13.2128H5.52707L2.3285 1.90204L2.37081 1.88513V13.2128H1V0.743909H3.48777L6.55095 12.0547H6.53402L9.61412 0.743909Z" fill="black"/>
<path d="M15.4351 2.01193L16.0866 1.19194V6.82198L15.7312 6.32322H20.5206V7.59125H15.7312L16.0866 7.09249V12.7648L15.4351 11.9448H21.4599V13.2128H14.6396V0.743909H21.4599V2.01193H15.4351Z" fill="black"/>
<path d="M25.2498 13.2128H23.8452V0.743909H26.206L31.5031 12.3844L31.3931 12.452V0.743909H32.7978V13.2128H30.4031L25.1229 1.58926L25.2498 1.53008V13.2128Z" fill="black"/>
<path d="M43.7545 8.61412C43.7545 10.2316 43.3765 11.432 42.6206 12.2153C41.8647 12.993 40.8126 13.3819 39.4643 13.3819C38.1217 13.3819 37.0725 12.993 36.3165 12.2153C35.5606 11.432 35.1827 10.2316 35.1827 8.61412C35.1827 8.36615 35.1827 8.1041 35.1827 7.82795C35.1827 7.54616 35.1827 7.25029 35.1827 6.94033V0.743909H36.6296V7.06713C36.6296 7.36019 36.6296 7.63352 36.6296 7.88712C36.6296 8.14073 36.6296 8.37461 36.6296 8.58876C36.6296 9.83988 36.8694 10.736 37.3489 11.277C37.8284 11.8124 38.5335 12.0801 39.4643 12.0801C40.4008 12.0801 41.1087 11.8124 41.5883 11.277C42.0734 10.736 42.316 9.83988 42.316 8.58876V0.743909H43.7545V8.61412Z" fill="black"/>
<path d="M59.1289 0.743909H61.6167V13.2128H60.2459V1.89359L60.2882 1.91049L57.1065 13.2128H55.0419L51.8433 1.90204L51.8856 1.88513V13.2128H50.5148V0.743909H53.0026L56.0657 12.0547H56.0488L59.1289 0.743909Z" fill="black"/>
<path d="M63.4891 13.2128L66.9246 0.710094H69.1755L72.5856 13.2128H71.0963L68.0416 1.64843H68.0585L64.9784 13.2128H63.4891ZM65.2661 9.90751V8.63948H70.834V9.90751H65.2661Z" fill="black"/>
<path d="M77.4159 6.89806L77.4498 5.7822L82.4423 13.2128H80.8091L76.5444 6.90652L77.289 6.9995L75.5966 9.21432L75.749 8.27598V13.2128H74.302V0.743909H75.749V7.5997L75.4613 7.29538L80.5553 0.743909H82.1376L77.4159 6.89806Z" fill="black"/>
<path d="M85.0301 2.01193L85.6817 1.19194V6.82198L85.3263 6.32322H90.1157V7.59125H85.3263L85.6817 7.09249V12.7648L85.0301 11.9448H91.0549V13.2128H84.2347V0.743909H91.0549V2.01193H85.0301Z" fill="black"/>
<path d="M93.4402 13.2128V0.743909H97.7727C98.9178 0.743909 99.7894 1.01442 100.387 1.55545C100.985 2.09647 101.284 2.9221 101.284 4.03232C101.284 4.69733 101.157 5.26372 100.904 5.73148C100.655 6.1936 100.354 6.55147 99.9981 6.80507C99.6484 7.05868 99.324 7.20239 99.025 7.2362C99.3297 7.25874 99.6286 7.34328 99.922 7.48981C100.221 7.6307 100.469 7.85049 100.667 8.14918C100.864 8.44787 100.963 8.848 100.963 9.34958C100.963 9.8117 100.963 10.2851 100.963 10.7698C100.963 11.2488 100.963 11.7222 100.963 12.19C100.963 12.4323 100.983 12.6493 101.022 12.8409C101.062 13.0269 101.107 13.1508 101.157 13.2128H99.702C99.6625 13.1396 99.623 13.0128 99.5835 12.8324C99.544 12.6521 99.5243 12.4379 99.5243 12.19C99.5243 11.756 99.5243 11.3136 99.5243 10.8628C99.5243 10.4119 99.5243 9.96668 99.5243 9.5271C99.5243 8.97481 99.3494 8.5634 98.9996 8.29289C98.6499 8.02238 98.1563 7.88712 97.5188 7.88712H94.4472L94.8534 7.33764V13.2128H93.4402ZM94.8534 7.2193L94.4472 6.6191H97.5357C97.9532 6.6191 98.3312 6.51765 98.6696 6.31477C99.0137 6.10625 99.2873 5.81883 99.4904 5.45251C99.6992 5.08056 99.8035 4.64661 99.8035 4.15067C99.8035 3.37858 99.6004 2.82911 99.1943 2.50224C98.7881 2.17537 98.2014 2.01193 97.4342 2.01193H94.4133L94.8534 1.38638V7.2193Z" fill="black"/>
<path d="M112.229 13.3819C111.535 13.3819 110.887 13.2128 110.283 12.8747C109.679 12.5309 109.189 12.0603 108.811 11.463C108.438 10.8656 108.252 10.1837 108.252 9.41721C108.252 9.4003 108.252 9.38621 108.252 9.37494C108.252 9.36367 108.252 9.34958 108.252 9.33267L109.285 9.30731C109.285 9.31858 109.285 9.33267 109.285 9.34958C109.285 9.36085 109.285 9.37212 109.285 9.38339C109.285 9.86806 109.411 10.3105 109.665 10.7106C109.925 11.1107 110.263 11.4291 110.681 11.6658C111.098 11.9025 111.547 12.0209 112.026 12.0209C112.822 12.0209 113.482 11.7504 114.006 11.2093C114.537 10.6627 114.802 9.83143 114.802 8.71557C114.802 7.59407 114.539 6.76562 114.015 6.23023C113.49 5.68921 112.827 5.4187 112.026 5.4187C111.547 5.4187 111.098 5.53705 110.681 5.77375C110.263 6.00481 109.925 6.31759 109.665 6.71208C109.411 7.10658 109.285 7.54898 109.285 8.03928L108.252 8.00547C108.252 7.23338 108.438 6.55429 108.811 5.96818C109.189 5.38207 109.679 4.92558 110.283 4.59871C110.887 4.2662 111.535 4.09995 112.229 4.09995C112.957 4.09995 113.628 4.28029 114.243 4.64097C114.858 4.99602 115.352 5.51732 115.724 6.20487C116.096 6.89243 116.282 7.72932 116.282 8.71557C116.282 9.71872 116.099 10.5697 115.732 11.2685C115.366 11.9617 114.875 12.4886 114.26 12.8493C113.645 13.2044 112.968 13.3819 112.229 13.3819ZM107.838 13.2128V0H109.285V13.2128H107.838Z" fill="black"/>
<path d="M118.256 17C118.03 17 117.824 16.9859 117.638 16.9577C117.452 16.9352 117.336 16.9126 117.291 16.8901V15.639C117.365 15.6728 117.486 15.701 117.655 15.7235C117.824 15.7461 117.994 15.7573 118.163 15.7573C118.524 15.7573 118.829 15.6813 119.077 15.5291C119.325 15.3826 119.534 15.1797 119.703 14.9204C119.872 14.6668 120.01 14.3794 120.118 14.0582L120.388 13.2636L117.291 4.23521H118.798L121.285 11.9702H121.082L123.519 4.23521H125L121.708 13.9821C121.522 14.5288 121.297 15.0303 121.031 15.4868C120.772 15.9433 120.422 16.3096 119.982 16.5858C119.548 16.8619 118.972 17 118.256 17Z" fill="black"/>
</svg>
